<svg width="12" height="12" viewBox="0 0 12 12" fill="none" xmlns="http://www.w3.org/2000/svg">
<mask id="mask0" mask-type="alpha" maskUnits="userSpaceOnUse" x="0" y="0" width="12" height="12">
<path fill-rule="evenodd" clip-rule="evenodd" d="M0 0H12V12H0V0Z" fill="white"/>
</mask>
<g mask="url(#mask0)">
<path fill-rule="evenodd" clip-rule="evenodd" d="M6.89323 6L11.8151 1.07817C12.0617 0.831516 12.0617 0.431625 11.8151 0.184992C11.5684 -0.0616641 11.1685 -0.0616641 10.9219 0.184992L6 5.10682L1.07817 0.184992C0.831516 -0.0616641 0.431625 -0.0616641 0.184992 0.184992C-0.0616406 0.431648 -0.0616641 0.831539 0.184992 1.07817L5.10682 6L0.184992 10.9218C-0.0616641 11.1685 -0.0616641 11.5684 0.184992 11.815C0.431649 12.0617 0.831539 12.0616 1.07817 11.815L6 6.89318L10.9218 11.815C11.1685 12.0617 11.5684 12.0616 11.815 11.815C12.0616 11.5684 12.0616 11.1685 11.815 10.9218L6.89323 6Z" fill="black"/>
</g>
</svg>
