<svg width="22" height="20" viewBox="0 0 22 20" fill="none" xmlns="http://www.w3.org/2000/svg">
<path fill-rule="evenodd" clip-rule="evenodd" d="M7.69991 15.4423C8.95066 15.4423 9.96458 16.4562 9.96458 17.7069C9.96458 18.9577 8.95066 19.9716 7.69991 19.9716C6.44917 19.9716 5.43524 18.9577 5.43524 17.7069C5.43524 16.4562 6.44917 15.4423 7.69991 15.4423Z" fill="black"/>
<mask id="mask0" mask-type="alpha" maskUnits="userSpaceOnUse" x="0" y="0" width="22" height="15">
<path fill-rule="evenodd" clip-rule="evenodd" d="M0 0.0424805H21.741V14.5365H0V0.0424805Z" fill="white"/>
</mask>
<g mask="url(#mask0)">
<path fill-rule="evenodd" clip-rule="evenodd" d="M21.6504 2.94125C21.5598 2.85068 21.4692 2.76006 21.2881 2.76006H4.07643L3.62348 0.404816C3.53291 0.223627 3.35172 0.0424805 3.17053 0.0424805H0.452909C0.181189 0.042438 0 0.223627 0 0.495389C0 0.767151 0.181189 0.94834 0.452951 0.94834H2.80824L4.98234 12C5.34467 13.4494 6.61291 14.5365 8.15291 14.5365H18.5704C18.8422 14.5365 19.0234 14.3553 19.0234 14.0835C19.0234 13.8117 18.8422 13.6305 18.5704 13.6305H8.15287C7.42815 13.6305 6.70348 13.2682 6.3411 12.6341L19.5669 10.8224C19.7481 10.8224 19.9292 10.6412 19.9292 10.46L21.741 3.21301C21.741 3.21301 21.741 3.03182 21.6504 2.94125Z" fill="black"/>
</g>
<path fill-rule="evenodd" clip-rule="evenodd" d="M16.7587 15.4423C18.0094 15.4423 19.0234 16.4562 19.0234 17.7069C19.0234 18.9577 18.0094 19.9716 16.7587 19.9716C15.5079 19.9716 14.494 18.9577 14.494 17.7069C14.494 16.4562 15.5079 15.4423 16.7587 15.4423Z" fill="black"/>
</svg>
