<svg width="20" height="20" viewBox="0 0 20 20" fill="none" xmlns="http://www.w3.org/2000/svg">
<mask id="mask0" mask-type="alpha" maskUnits="userSpaceOnUse" x="0" y="0" width="14" height="7">
<path fill-rule="evenodd" clip-rule="evenodd" d="M0.748535 0.0390625H13.4071V6.28062H0.748535V0.0390625Z" fill="white"/>
</mask>
<g mask="url(#mask0)">
<path fill-rule="evenodd" clip-rule="evenodd" d="M13.4071 1.64301L4.349 6.28063L0.748535 4.50909L9.64698 0.115174C9.84659 0.0136921 10.0861 0.0136921 10.2957 0.115174L13.4071 1.64301Z" fill="white"/>
</g>
<path fill-rule="evenodd" clip-rule="evenodd" d="M19.2024 4.50907L9.98543 9.07515L6.53385 7.37434L6.03479 7.12065L15.1029 2.48389L15.602 2.73671L19.2024 4.50907Z" fill="white"/>
<mask id="mask1" mask-type="alpha" maskUnits="userSpaceOnUse" x="0" y="5" width="10" height="15">
<path fill-rule="evenodd" clip-rule="evenodd" d="M0 5.82471H9.24694V19.9995H0V5.82471Z" fill="white"/>
</mask>
<g mask="url(#mask1)">
<path fill-rule="evenodd" clip-rule="evenodd" d="M9.24694 10.3908L9.23696 19.9995L0.409201 15.3927C0.159688 15.2613 0 14.9976 0 14.714V5.82471L3.74101 7.66779V10.9081C3.74101 11.3231 4.08035 11.6674 4.48955 11.6674C4.89875 11.6674 5.23809 11.3231 5.23809 10.9081V8.41714L5.73711 8.65999L9.24694 10.3908Z" fill="white"/>
</g>
<mask id="mask2" mask-type="alpha" maskUnits="userSpaceOnUse" x="10" y="5" width="10" height="15">
<path fill-rule="evenodd" clip-rule="evenodd" d="M10.734 5.83472H19.961V19.9896H10.734V5.83472Z" fill="white"/>
</mask>
<g mask="url(#mask2)">
<path fill-rule="evenodd" clip-rule="evenodd" d="M19.951 5.83472L10.744 10.3808L10.734 19.9896L19.961 15.1715L19.951 5.83472Z" fill="white"/>
</g>
</svg>
