<svg width="22" height="22" viewBox="0 0 22 22" fill="none" xmlns="http://www.w3.org/2000/svg">
<path fill-rule="evenodd" clip-rule="evenodd" d="M13.2699 8.73003L12.4368 7.89673L7.43652 12.8967L8.26963 13.7303L9.10293 14.5634L14.1032 9.56313L13.2699 8.73003Z" fill="black"/>
<path fill-rule="evenodd" clip-rule="evenodd" d="M15.7143 16.1071H6.28574C6.1808 16.1066 6.08067 16.0642 6.0072 15.9894C5.97651 15.9571 5.95156 15.9199 5.93334 15.8792C5.92858 15.8699 5.9247 15.8608 5.92068 15.851C5.90403 15.8093 5.8946 15.7651 5.89288 15.7202V15.7143C5.89288 15.7091 5.89558 15.7052 5.89558 15.7001C5.89558 15.6777 5.8973 15.6552 5.90113 15.633L6.49636 12.8154C6.50078 12.8001 6.50613 12.7849 6.51247 12.7702C6.5163 12.7592 6.51959 12.7487 6.52415 12.7376C6.54257 12.6955 6.5681 12.657 6.59958 12.6236L6.60322 12.619L12.159 7.06318L12.7144 6.50768C13.4824 5.74632 14.7216 5.74897 15.4862 6.51382C16.251 7.27841 16.2537 8.51758 15.4923 9.28567L14.9368 9.84097L9.45639 15.3214H15.7143C15.9313 15.3214 16.1072 15.4973 16.1072 15.7143C16.1072 15.9312 15.9313 16.1071 15.7143 16.1071M11 0C4.92491 0 0 4.92491 0 11C0 17.0751 4.92491 22 11 22C17.0751 22 22 17.0751 22 11C21.9931 4.9278 17.0722 0.00692411 11 0" fill="black"/>
<path fill-rule="evenodd" clip-rule="evenodd" d="M14.9368 8.73018C15.3972 8.2698 15.3972 7.52342 14.9368 7.06324C14.4701 6.61857 13.7366 6.61857 13.2699 7.06324L12.9921 7.34138L14.6587 9.00793L14.9368 8.73018Z" fill="black"/>
<path fill-rule="evenodd" clip-rule="evenodd" d="M7.11532 13.687L6.7948 15.2051L8.3129 14.8846L7.71418 14.2857L7.11532 13.687Z" fill="black"/>
</svg>
