<svg width="17" height="16" viewBox="0 0 17 16" fill="none" xmlns="http://www.w3.org/2000/svg">
<mask id="mask0" mask-type="alpha" maskUnits="userSpaceOnUse" x="0" y="0" width="17" height="16">
<path fill-rule="evenodd" clip-rule="evenodd" d="M0 0H16.7287V15.9725H0V0Z" fill="white"/>
</mask>
<g mask="url(#mask0)">
<path fill-rule="evenodd" clip-rule="evenodd" d="M12.0019 9.7133C11.892 9.81974 11.8439 9.97425 11.8714 10.1253L12.6577 14.6335L8.59928 12.515C8.46537 12.4429 8.304 12.4464 8.16666 12.515L4.12206 14.6575L4.88082 10.1425C4.90486 9.99142 4.85679 9.84034 4.74692 9.73391L1.46451 6.54764L5.9933 5.87468C6.14434 5.85064 6.27481 5.75794 6.34005 5.6206L8.35207 1.51073L10.3916 5.6103C10.4603 5.74764 10.5907 5.84034 10.7418 5.86438L15.274 6.50987L12.0019 9.7133ZM16.7057 6.03605C16.6508 5.86781 16.5066 5.74764 16.3315 5.72017L11.1126 4.97854L8.76408 0.257511C8.68511 0.0995708 8.52374 0 8.34863 0C8.17356 0 8.01215 0.0995708 7.93322 0.260944L5.61562 4.99571L0.396702 5.77167C0.221594 5.79914 0.0773883 5.91931 0.0224527 6.08755C-0.0324829 6.25579 0.0155858 6.4412 0.142624 6.56137L3.92975 10.2318L3.05421 15.43C3.02331 15.6052 3.09541 15.7803 3.23962 15.8833C3.31859 15.9416 3.41473 15.9725 3.51086 15.9725C3.5864 15.9725 3.65854 15.9554 3.72721 15.9176L8.3864 13.4489L13.0594 15.8901C13.128 15.9244 13.2001 15.9416 13.2722 15.9416C13.5263 15.9416 13.7358 15.7322 13.7358 15.4781C13.7358 15.4403 13.7323 15.406 13.7221 15.3717L12.8191 10.2043L16.5821 6.5133C16.716 6.3897 16.7607 6.20429 16.7057 6.03605Z" fill="black"/>
</g>
</svg>
