<?xml version="1.0"?>
<svg xmlns="http://www.w3.org/2000/svg" xmlns:xlink="http://www.w3.org/1999/xlink" xmlns:svgjs="http://svgjs.com/svgjs" version="1.1" width="512" height="512" x="0" y="0" viewBox="0 0 60 58" style="enable-background:new 0 0 512 512" xml:space="preserve" class=""><g><g xmlns="http://www.w3.org/2000/svg" id="Page-1" fill="none" fill-rule="evenodd"><g id="027---AR-360-Degree-View" fill="rgb(0,0,0)" fill-rule="nonzero"><path id="Shape" d="m18.526 19.686 10.474 5.64v-3.326c0-.5522847.4477153-1 1-1s1 .4477153 1 1v3.326l10.474-5.64c.3237997-.1743063.525807-.5122652.526-.88v-11.133l-2.526 1.358c-.4865629.26178297-1.093217.07956286-1.355-.407s-.0795629-1.09321703.407-1.355l2.363-1.269-10.415-5.609c-.2959236-.15930021-.6520764-.15930021-.948 0l-10.415 5.609 2.363 1.27c.4865629.26178297.668783.86843714.407 1.355s-.8684371.66878297-1.355.407l-2.526-1.359v11.133c.000193.3677348.2022003.7056937.526.88zm6.593-9.31c.1256309-.2337383.3390132-.40795869.5931576-.48429579.2541445-.07633711.5282093-.04853075.7618424.07729579l3.526 1.896 3.526-1.9c.4865629-.26178297 1.093217-.07956286 1.355.407.261783.4865629.0795629 1.093217-.407 1.355l-3.474 1.873v2.4c0 .5522847-.4477153 1-1 1s-1-.4477153-1-1v-2.4l-3.474-1.867c-.2342717-.1256309-.4088806-.3393704-.4852494-.5939959-.0763689-.2546255-.0482122-.5291798.0782494-.7630041z" fill="#ffffff" data-original="#000000" style="" class=""/><path id="Shape" d="m49.7 24.24 4.3-1.282c.3492253-.0963269.6190452-.3739933.7053244-.7258357.0862791-.3518424-.0244762-.722834-.2895206-.9697927s-.6429261-.3312613-.9878038-.2203716l-6.708 2c-.5290058.1580554-.8298227.7149247-.672 1.244l2 6.708c.1264245.4235794.5159563.7138985.958.714.0967968-.0000135.1930979-.0138189.286-.041.2542719-.0758916.4679546-.2497335.5939946-.4832451s.1541016-.5075441.0780054-.7617549l-1.339-4.491c5.969 3.279 9.375 7.909 9.375 12.831 0 9.505-12.561 17.238-28 17.238s-28-7.733-28-17.238c0-4.912 3.41-9.547 9.38-12.827l-1.338 4.487c-.07609616.2542108-.04803463.5282433.0780054.7617549.12604.2335116.3397227.4073535.5939946.4832451.0929021.0271811.1892032.0409865.286.041.4420437-.0001015.8315755-.2904206.958-.714l2-6.708c.1578227-.5290753-.1429942-1.0859446-.672-1.244l-6.708-2c-.52452244-.1446791-1.06846149.1565654-1.22411123.6779376s.13411867 1.0715105.65211123 1.2380624l4.3 1.283c-6.56 3.64-10.306 8.884-10.306 14.521 0 10.608 13.458 19.238 30 19.238s30-8.63 30-19.238c0-5.646-3.739-10.882-10.3-14.522z" fill="#ffffff" data-original="#000000" style="" class=""/><path id="Shape" d="m21 43c-.8622871.0030872-1.6288633-.5484442-1.9-1.367-.1742459-.5246705-.7408295-.8087458-1.2655-.6345-.5246705.1742459-.8087458.7408295-.6345 1.2655.5327293 1.5955853 2.0068113 2.6873749 3.6883928 2.7318351 1.6815815.0444601 3.2112964-.9679105 3.8275955-2.5331162.616299-1.5652056.1874747-3.3487502-1.0729883-4.4627189 1.260463-1.1139687 1.6892873-2.8975133 1.0729883-4.4627189-.6162991-1.5652057-2.146014-2.5775763-3.8275955-2.5331162-1.6815815.0444602-3.1556635 1.1362498-3.6883928 2.7318351-.1742458.5246705.1098295 1.0912541.6345 1.2655.5246705.1742458 1.0912541-.1098295 1.2655-.6345.323233-.9687689 1.3244352-1.5383919 2.3223611-1.3212817.9979258.2171101 1.6719774 1.1512036 1.5635114 2.1666976s-.9646033 1.7861463-1.9858725 1.7875841c-.5522847 0-1 .4477153-1 1s.4477153 1 1 1c1.1045695 0 2 .8954305 2 2s-.8954305 2-2 2z" fill="#ffffff" data-original="#000000" style="" class=""/><path id="Shape" d="m30 45c2.342115-.1485494 4.1270679-2.1566214 4-4.5.1270679-2.3433786-1.657885-4.3514506-4-4.5-.4557637.0058316-.9061997.098838-1.327.274.4133256-1.4479467 1.4022293-2.6631128 2.736-3.362.3372795-.1387771.5722579-.4501702.6131772-.8125818s-.1187107-.7183593-.4165553-.9288472-.6866625-.2421303-1.0146219-.082571c-4.539 2.037-4.591 8.632-4.591 8.912.006183.0520822.0165499.103582.031.154-.008.116-.031.228-.031.346-.1270679 2.3433786 1.657885 4.3514506 4 4.5zm0-7c1.2324358.1564335 2.1179166 1.2632846 2 2.5.1179166 1.2367154-.7675642 2.3435665-2 2.5-1.2324358-.1564335-2.1179166-1.2632846-2-2.5-.1179166-1.2367154.7675642-2.3435665 2-2.5z" fill="#ffffff" data-original="#000000" style="" class=""/><path id="Shape" d="m39 31c-2.209139 0-4 1.790861-4 4v6c0 2.209139 1.790861 4 4 4s4-1.790861 4-4v-6c0-2.209139-1.790861-4-4-4zm2 10c0 1.1045695-.8954305 2-2 2s-2-.8954305-2-2v-6c0-1.1045695.8954305-2 2-2s2 .8954305 2 2z" fill="#ffffff" data-original="#000000" style="" class=""/></g></g></g></svg>
